<?xml version="1.0" encoding="UTF-8" standalone="no"?>
<svg
   xmlns:dc="http://purl.org/dc/elements/1.1/"
   xmlns:cc="http://creativecommons.org/ns#"
   xmlns:rdf="http://www.w3.org/1999/02/22-rdf-syntax-ns#"
   xmlns:svg="http://www.w3.org/2000/svg"
   xmlns="http://www.w3.org/2000/svg"
   xmlns:sodipodi="http://sodipodi.sourceforge.net/DTD/sodipodi-0.dtd"
   xmlns:inkscape="http://www.inkscape.org/namespaces/inkscape"
   version="1.1"
   viewBox="0 0 677.61096 179.54858"
   class="ts_full"
   id="svg23"
   sodipodi:docname="virtualflybrain-logo.svg"
   inkscape:version="1.0.2 (e86c8708, 2021-01-15)">
  <metadata
     id="metadata29">
    <rdf:RDF>
      <cc:Work
         rdf:about="">
        <dc:format>image/svg+xml</dc:format>
        <dc:type
           rdf:resource="http://purl.org/dc/dcmitype/StillImage" />
        <dc:title></dc:title>
      </cc:Work>
    </rdf:RDF>
  </metadata>
  <defs
     id="defs27">
    <rect
       x="341.70125"
       y="59.845982"
       width="326.90063"
       height="109.39588"
       id="rect917" />
    <rect
       x="330.76167"
       y="34.105775"
       width="403.47775"
       height="50.83691"
       id="rect905" />
  </defs>
  <sodipodi:namedview
     pagecolor="#ffffff"
     bordercolor="#666666"
     borderopacity="1"
     objecttolerance="10"
     gridtolerance="10"
     guidetolerance="10"
     inkscape:pageopacity="0"
     inkscape:pageshadow="2"
     inkscape:window-width="1680"
     inkscape:window-height="1050"
     id="namedview25"
     showgrid="false"
     inkscape:zoom="1.553989"
     inkscape:cx="362.61517"
     inkscape:cy="52.450989"
     inkscape:window-x="0"
     inkscape:window-y="0"
     inkscape:window-maximized="0"
     inkscape:current-layer="layer3" />
  <g
     inkscape:groupmode="layer"
     id="layer1"
     inkscape:label="Logo">
    <path
       style="fill:#04c0fe;stroke-width:0.23482;fill-opacity:1"
       d="m 54.187888,171.08941 c -0.793349,-0.17438 -2.837751,-0.80054 -4.54312,-1.39145 C 26.866324,161.80519 12.862603,149.02329 6.3208194,130.154 4.4586711,117.91629 4.7927278,99.247392 11.948873,90.353478 c 2.879416,-3.578631 7.327976,-8.27348 12.524488,-13.217902 7.837726,-7.457501 12.181066,-10.771853 17.405158,-13.281678 5.747435,-2.76124 9.004547,-2.717974 12.232315,0.16252 2.582776,2.304882 4.300854,5.491968 8.251392,15.306575 2.972511,7.384833 4.229749,10.062806 5.738598,12.22347 1.448413,2.074105 2.218412,2.718928 3.480739,2.914893 0.946464,0.146924 1.032874,0.121913 0.908612,-0.263078 -0.509927,-1.579698 -1.648426,-6.512302 -1.972003,-8.543756 -0.557532,-3.50026 -0.504271,-7.917911 0.123347,-10.230688 1.090025,-4.01679 2.959613,-6.394681 7.070236,-8.992531 3.097528,-1.957574 6.53254,-5.186193 7.435063,-6.988326 1.312558,-2.620845 1.705456,-5.753791 1.026681,-8.186857 -0.557504,-1.998383 -1.456184,-3.502516 -4.232138,-7.083348 -3.854856,-4.972578 -4.757907,-7.039449 -4.474288,-10.240526 0.154183,-1.740173 0.552679,-3.119432 0.901276,-3.119432 0.117058,0 0.494226,-0.529759 0.83814,-1.177269 0.796983,-1.500511 2.508432,-3.258498 4.158341,-4.271424 1.781487,-1.093709 3.920572,-1.896632 7.72568,-2.899913 8.92523,-2.353283 11.63065,-3.311941 14.07717,-4.988173 0.60523,-0.414669 1.65302,-1.479827 2.32842,-2.367018 1.94877,-2.559829 2.80796,-3.317552 4.81226,-4.243983 l 1.86501,-0.86205 5.34722,1.341008 c 2.94098,0.737552 5.54557,1.281551 5.78799,1.208891 0.24241,-0.0727 1.20276,-0.767515 2.13412,-1.544107 3.36304,-2.80424 3.57176,-2.9295997 4.63737,-2.7851972 2.61944,0.3549458 4.03159,1.1870247 4.95945,2.9222102 0.40179,0.751379 0.57222,0.87881 1.00757,0.75335 0.28819,-0.08307 1.71401,-0.208774 3.16848,-0.27938 5.59583,-0.271669 10.83293,1.509313 16.40076,5.577409 2.22124,1.622937 6.28765,5.679408 8.03606,8.016435 1.32054,1.765093 1.36511,1.874335 1.62932,3.993676 0.14941,1.198421 0.33272,2.540026 0.4074,2.981338 l 0.13573,0.8024 0.30568,-0.573034 c 0.16812,-0.315164 0.36849,-1.465662 0.44528,-2.556666 0.0768,-1.091004 0.30433,-2.329555 0.50563,-2.752356 0.20131,-0.422792 2.77671,-3.400655 5.72312,-6.617455 l 5.35711,-5.848748 2.28388,-1.079314 c 12.57919,-5.944696 46.47215,-4.1381619 63.14636,3.365777 4.40603,1.982852 7.41841,4.273057 8.78085,6.675794 2.70423,4.769049 3.83763,16.866553 2.08689,22.274411 -0.66879,2.065844 -1.22079,2.814142 -3.91356,5.305345 -1.27081,1.175702 -2.48448,2.458518 -2.69706,2.850706 -0.6052,1.116565 -0.35225,3.841811 0.50544,5.444935 0.8005,1.496284 3.51918,4.133485 7.93175,7.693991 3.65158,2.946488 5.58098,5.050207 6.81194,7.427383 1.34044,2.588626 1.26394,3.790797 -0.73835,11.60208 -1.41188,5.508077 -2.09885,8.493155 -2.09885,9.120172 0,0.113 0.32455,0.145649 0.72122,0.07252 0.39668,-0.07307 1.04608,-0.192775 1.44315,-0.265957 0.57928,-0.106766 0.9153,-0.443566 1.70055,-1.704607 0.86645,-1.391471 1.523,-2.073803 4.12388,-4.28592 0.94204,-0.801209 1.46135,-2.632287 2.95204,-10.40861 2.28847,-11.938139 3.36269,-15.740067 5.59278,-19.794072 2.13804,-3.886699 5.5777,-5.876436 10.15853,-5.876436 2.66034,0 4.68795,0.741449 8.76802,3.206265 1.19002,0.718905 3.67823,2.048608 5.52938,2.954905 6.98794,3.421219 12.70095,8.544939 17.80925,15.972313 5.38743,7.833149 8.78426,16.639974 10.35053,26.835411 0.31025,2.01943 0.42396,4.2182 0.42707,8.25706 0.005,6.22639 -0.31502,8.9412 -1.64812,13.99063 -4.12565,15.62668 -17.40723,30.83007 -33.35258,38.17857 -6.40369,2.95119 -10.72646,3.98967 -16.66531,4.00361 -3.1975,0.007 -4.20356,-0.0768 -5.96243,-0.49955 -7.49717,-1.802 -12.94448,-6.753 -16.14623,-14.6751 -1.5746,-3.89606 -2.60766,-8.87756 -3.1986,-15.42426 l -0.17599,-1.94957 -1.30525,-0.63075 c -1.01018,-0.48816 -1.66234,-0.63458 -2.88489,-0.64775 -0.8688,-0.009 -2.06344,-0.0867 -2.65478,-0.17202 -1.04988,-0.15138 -1.10409,-0.20193 -2.30882,-2.15238 -1.11852,-1.81094 -2.20263,-4.41797 -2.61244,-6.28232 -0.14947,-0.67991 -0.0385,-0.8055 2.55947,-2.89717 5.01629,-4.03869 8.04708,-7.38521 9.92296,-10.95662 3.75662,-6.3502 -1.56344,-6.6607 -7.42351,-6.78075 -3.26959,-0.0669 -6.16112,-0.0562 -6.42562,0.0238 -0.26447,0.08 -2.05984,2.17502 -3.98968,4.65542 -6.6678,8.56988 -10.69795,11.54556 -16.85489,12.44477 -1.91675,0.27993 -1.96351,0.30201 -1.96351,0.92668 0,2.29825 -3.83355,7.34388 -6.33833,8.34237 l -0.81402,0.32449 0.83467,2.12003 c 2.0203,5.13152 2.08881,9.9272 0.19822,13.877 -3.57631,7.47167 -13.78136,12.68006 -28.73969,14.66795 -4.26041,0.5662 -14.07706,0.56581 -18.39121,0 -3.55171,-0.46639 -8.69089,-1.65906 -10.9652,-2.54469 -2.2444,-0.87399 -3.12746,-0.92064 -6.68017,-0.3529 -2.13236,0.34076 -3.8694,0.48122 -5.28906,0.4277 -1.88506,-0.0711 -2.30664,-0.17365 -3.89402,-0.94735 -0.97905,-0.47723 -2.80784,-1.56039 -4.06398,-2.40708 -2.75902,-1.85967 -7.66368,-6.42192 -8.43856,-7.84943 -0.7637,-1.40688 -0.72529,-3.97012 0.11651,-7.77252 0.68524,-3.09527 0.78272,-4.59789 0.3486,-5.37356 -0.34127,-0.60975 -1.61158,-1.77022 -1.86003,-1.69918 -0.20817,0.0595 -5.84161,-2.93538 -10.7214,-5.69982 -5.93424,-3.36181 -9.86545,-6.38178 -12.74918,-9.79398 -2.152373,-2.54682 -2.838029,-3.73442 -3.869931,-6.70297 -1.422638,-4.09258 -1.859064,-4.71542 -4.055968,-5.78847 -0.928714,-0.4536 -1.584694,-0.59223 -2.884901,-0.60962 -2.095906,-0.0281 -3.298504,0.2904 -7.092029,1.87787 -1.652807,0.69166 -3.383744,1.38542 -3.846529,1.5417 -1.046877,0.3535 -1.05527,0.90594 -0.04475,2.9437 1.365355,2.75318 3.17682,4.43456 9.08385,8.4315 3.704101,2.50636 5.908227,4.5614 6.765807,6.30822 0.557976,1.13653 0.660365,1.64115 0.646287,3.18536 -0.01529,1.67324 -0.137889,2.12793 -1.391841,5.16066 -2.247813,5.43644 -2.109237,5.21962 -3.448608,5.39527 -1.524372,0.19989 -5.165649,0.9963 -5.520383,1.20743 -0.211249,0.12571 -0.196426,0.47584 0.06005,1.41934 0.190307,0.69995 0.340533,2.33039 0.340533,3.69602 0,10.54074 -10.19388,22.4934 -21.997324,25.79264 -2.68214,0.74969 -7.532614,0.98109 -9.856726,0.47022 z"
       id="path3400"
       inkscape:connector-curvature="0"
       sodipodi:nodetypes="csccssssssssssssssssssssscsssssssssscccscscssssssssssssssssssssssssscssscscccsscccsssscssscssscsssscssssssssssssccssscc" />
  </g>
  <g
     inkscape:groupmode="layer"
     id="layer2"
     inkscape:label="Title">
    <text
       xml:space="preserve"
       id="text903"
       style="font-style:normal;font-weight:normal;font-size:40px;line-height:1.25;font-family:sans-serif;white-space:pre;shape-inside:url(#rect905);fill:#000000;fill-opacity:1;stroke:none;"
       transform="translate(-55.984951,-26.383712)"><tspan
         x="330.76172"
         y="70.598681"><tspan
           style="font-style:normal;font-variant:normal;font-weight:normal;font-stretch:normal;font-family:Courier;-inkscape-font-specification:Courier">VirtualFlyBrain</tspan><tspan
           style="font-style:normal;font-variant:normal;font-weight:normal;font-stretch:normal;font-size:14.6667px;font-family:Courier;-inkscape-font-specification:Courier">.org</tspan></tspan></text>
  </g>
  <g
     inkscape:groupmode="layer"
     id="layer3"
     inkscape:label="Slogan">
    <text
       xml:space="preserve"
       id="text915"
       style="font-style:normal;font-weight:normal;font-size:21.33330000000000126px;line-height:1.25;font-family:sans-serif;white-space:pre;shape-inside:url(#rect917);fill:#000000;fill-opacity:1;stroke:none;"
       transform="translate(0.64350523,24.453197)"><tspan
         x="341.70117"
         y="79.308719"><tspan
           style="shape-inside:url(#rect917)">A hub for fly neural anatomy, </tspan></tspan><tspan
         x="341.70117"
         y="105.97535"><tspan
           style="shape-inside:url(#rect917)">connectivity &amp; imaging data</tspan></tspan></text>
  </g>
</svg>
